<?xml version="1.0" encoding="iso-8859-1"?>
<!-- Uploaded to: SVG Repo, www.svgrepo.com, Generator: SVG Repo Mixer Tools -->
<!DOCTYPE svg PUBLIC "-//W3C//DTD SVG 1.1//EN" "http://www.w3.org/Graphics/SVG/1.1/DTD/svg11.dtd">
<svg fill="#000000" height="800px" width="800px" version="1.1" id="Capa_1" xmlns="http://www.w3.org/2000/svg" xmlns:xlink="http://www.w3.org/1999/xlink" 
	 viewBox="0 0 428.168 428.168" xml:space="preserve">
<path d="M348.407,289.168h-31.548v-5.307c0-5.522-4.477-10-10-10s-10,4.478-10,10v5.307h-49v-5.308
	c0-5.522-4.478-9.999-10.001-9.999c-5.522,0-9.999,4.478-9.999,10.001v5.306h-32.255c-5.523,0-9.745,4.031-9.745,9.554v119.404
	c0,5.522,4.222,10.042,9.745,10.042h152.803c5.523,0,10.452-4.52,10.452-10.042V298.722
	C358.858,293.2,353.93,289.168,348.407,289.168z M338.858,408.168h-133v-99h22v4.413c0,5.522,4.478,9.999,10.001,9.999
	s9.999-4.478,9.999-10.001v-4.411h49v4.412c0,5.522,4.477,10,10,10s10-4.478,10-10v-4.412h22V408.168z M109.06,78.82
	c1.606,31.74,15.076,57.13,37.873,70.673c10.719,6.367,22.735,9.551,34.753,9.551c12.017,0,24.036-3.185,34.754-9.553
	c18.024-10.709,30.215-28.819,35.323-51.622c7.385,11.893,15.708,22.382,24.484,30.792c-0.581,0.167-1.166,0.327-1.754,0.48
	c-5.345,1.392-8.55,6.853-7.158,12.197s6.854,8.546,12.196,7.158c7.448-1.939,14.45-4.771,20.812-8.418
	c2.996-1.718,4.894-4.858,5.02-8.309c0.127-3.451-1.536-6.723-4.397-8.655c-14.663-9.9-29.308-28.389-40.309-50.345
	c-2.793-5.574-10.791-29.291-13.368-34.475c-10.489-21.094-31.126-33.329-52.378-37.358c-0.184-0.047-2.297-0.283-4.804-0.551
	c-1.702-0.182-4.642-0.317-7.623-0.381c-3.765-0.081-13.586,0.818-15.834,1.295c-28.934,6.135-56.22,27.577-57.656,65.978
	c-0.145,3.868-0.124,7.655,0.058,11.358C109.053,78.698,109.056,78.759,109.06,78.82z M200.954,23.157
	c16.262,5.771,29.833,18.367,32.85,38.539c0.304,2.033,0.612,7.175,0.623,7.596c-16.489,4.627-33.958,0.074-46.529-12.067
	C194.271,47.492,198.706,35.965,200.954,23.157z M232.919,90.125c-3.481,19.022-12.728,33.873-26.695,42.171
	c-15.134,8.993-33.939,8.994-49.077,0.001c-14.185-8.426-23.501-23.608-26.856-43.056c14.793-0.098,29.336-5.039,41.286-14.262
	c1.092-0.843,2.157-1.717,3.196-2.622C190.664,87.302,211.995,93.748,232.919,90.125z M129.626,61.277
	c4.322-27.406,28.227-40.691,51.686-41.766c-2.424,14.349-7.774,24.444-13.556,31.471c-0.263,0.278-0.508,0.57-0.734,0.872
	c-2.563,2.984-5.19,5.382-7.666,7.293c-8.79,6.783-19.554,10.302-30.417,10.088C128.951,68.833,129.286,63.438,129.626,61.277z
	 M112.71,248.061L91.333,363.473l59.959-0.002c5.523,0,10,4.477,10,10c0,5.522-4.477,10-10,10l-71.982,0.002
	c-2.971,0-5.788-1.321-7.688-3.605s-2.686-5.295-2.145-8.216l23.568-127.233c8.272-44.66,50.44-64.653,88.558-64.653
	c0.002,0-0.001,0,0.001,0c38.118,0,80.283,19.992,88.555,64.653c1.005,5.431-2.582,10.648-8.012,11.654
	c-5.429,0.998-10.648-2.581-11.654-8.012c-6.179-33.362-39.052-48.296-68.89-48.296C151.765,199.764,118.89,214.698,112.71,248.061z
	 M316.487,353.246c0.002,1.495-0.333,3.014-1.041,4.444c0,0-12.844,25.94-13.49,27.245c-0.017,0.034-0.025,0.051-0.025,0.051
	c-3.197,4.557-5.291,5.588-9.821,5.583c-3.064,0.031-6.202-2.938-8.411-5.625c-1.818-2.211-9.939-14.163-9.939-14.163
	c-1.216-1.742-1.8-3.737-1.801-5.713c0-3.158,1.491-6.266,4.277-8.211c4.529-3.163,10.762-2.053,13.923,2.477l1.261,1.807
	l6.103-12.325c2.45-4.95,8.449-6.974,13.399-4.524C314.441,346.034,316.482,349.57,316.487,353.246z"/>
</svg>